<svg xmlns="http://www.w3.org/2000/svg" viewBox="0 0 202.67 202.67"><defs><style>.cls-1{fill:#11649e;}</style></defs><title>IEEEITBA Icono</title><g id="Layer_2" data-name="Layer 2"><g id="Logos"><path class="cls-1" d="M173,29.68A101.34,101.34,0,0,0,29.68,173,101.34,101.34,0,0,0,173,29.68ZM101.34,8.26A93.11,93.11,0,0,1,193,117.85H187.2v11.87H170.27v-9.4h-14v20.19H145.92v-4.09H127.76v4.13H116.85l0-.43q-.55-8.44-1.1-16.91Q114.85,109.59,114,96v-.19c-1-14.68-2-29.86-3-44.77a12.08,12.08,0,0,0-1.51-4.86c-1.51-2.72-3.14-5.41-4.73-8L102.75,35l-.3-.5h-2.23l-.3.5c-.63,1.05-1.27,2.1-1.91,3.15-1.58,2.61-3.22,5.3-4.73,8A12.06,12.06,0,0,0,91.78,51c-1.08,14.92-2.08,30.1-3,44.78V96q-.9,13.62-1.77,27.25L86.2,134.8H74.92v9.08H64.6v-4.69H50.15V127.58H32v3.76H21.67V117.85h-12A93.16,93.16,0,0,1,101.34,8.26Zm1,136.12V38.32l.53.88c1.57,2.58,3.2,5.26,4.69,7.94a10.25,10.25,0,0,1,1.25,4c1.08,14.92,2.08,30.09,3,44.76v.19q.9,13.64,1.77,27.26.56,8.44,1.1,16.9c.09,1.42.19,2.83.28,4.24Z"/><path class="cls-1" d="M57.18,59.43a9.24,9.24,0,0,1,1.66-3.71c.88-1.27,2.86-2.7,3.71-4.13A50.22,50.22,0,0,0,65.23,46c1.09,0,4.75-.21,4.75-.21l1.65,1.24a13.1,13.1,0,0,1,.62-3.51l-1.86.62L67.5,42.51a4.23,4.23,0,0,0,1.24-1.24A22.91,22.91,0,0,0,70,38.38c.82-1.47.44-3.34,1.24-4.54a14.54,14.54,0,0,1,3.71-3.3,13.52,13.52,0,0,0-4.54,0,13.19,13.19,0,0,0-5,2.48c-.81.64,0,2.89-.41,4.12a9.59,9.59,0,0,1-2.48,3.72,15.55,15.55,0,0,0-6.19,1.24,4.92,4.92,0,0,0,1.24,1.65A9.5,9.5,0,0,0,59.66,45a12.88,12.88,0,0,1-1.24,3.3c-.71,1.08-1.81,1.79-2.06,2.48A14.45,14.45,0,0,0,56,55.31C56,58.47,57.18,59.43,57.18,59.43Z"/></g></g></svg>