<svg id="Layer_1" data-name="Layer 1" xmlns="http://www.w3.org/2000/svg" viewBox="0 0 491 491"><defs><style>.cls-1,.cls-3{fill:#00629b;}.cls-2,.cls-4{fill:none;}.cls-2,.cls-3,.cls-4{stroke:#00629b;stroke-miterlimit:10;}.cls-2{stroke-width:20px;}.cls-3,.cls-4{stroke-width:5px;}</style></defs><title>IEEE-Logo</title><g id="buildings"><rect class="cls-1" x="181.5" y="326.56" width="45" height="42.58"/><rect class="cls-1" x="19.5" y="285.5" width="33" height="56"/><rect class="cls-1" x="37.5" y="318.19" width="56" height="46.38"/><rect class="cls-1" x="77.5" y="309.07" width="44" height="68.43"/><rect class="cls-1" x="138.5" y="348.56" width="43" height="28.94"/><rect class="cls-1" x="121.5" y="337.2" width="35" height="40.3"/><rect class="cls-1" x="279.5" y="340.5" width="47" height="36.52"/><rect class="cls-1" x="309.5" y="330.5" width="44" height="47"/><rect class="cls-1" x="347.5" y="340.41" width="39" height="39.09"/><rect class="cls-1" x="378.5" y="291.5" width="34" height="85.52"/><rect class="cls-1" x="453.5" y="285.5" width="23" height="35"/><rect class="cls-1" x="408.5" y="314.26" width="51" height="42.39"/></g><circle id="circle" class="cls-2" cx="245.5" cy="245.5" r="235.5"/><g id="halfobelisk"><path id="darkside" class="cls-3" d="M250,90.5v291H212.49c.83-12.46,1.69-24.92,2.5-37.38q3.48-53.49,6.94-107c2.39-36.31,4.78-72.62,7.4-108.91a26.91,26.91,0,0,1,3.34-10.72c5.08-9.15,10.66-18,16-27Z" transform="translate(-4.5 -4.5)"/><path id="brightside" class="cls-4" d="M287.51,381.5H250V90.5h1.29c5.38,9,11,17.85,16,27a26.91,26.91,0,0,1,3.34,10.72c2.62,36.29,5,72.6,7.4,108.91q3.53,53.49,6.94,107C285.82,356.58,286.68,369,287.51,381.5Z" transform="translate(-4.5 -4.5)"/></g><path id="birditba" class="cls-1" d="M149,111.49c-.68,1.78-1,5-3,8-1.71,2.61-4.39,4.34-5,6-1.32,3.58-1,9.49-1,11,0,7.67,3,10,3,10s.48-3.91,4-9c2.14-3.08,6.94-6.53,9-10,3.94-6.6,6.32-13.51,6.5-13.5,2.63,0,11.5-.5,11.5-.5l4,3a31.7,31.7,0,0,1,1.5-8.5l-4.5,1.5-7-4a10.17,10.17,0,0,0,3-3c1.58-2.61,2.6-6.26,3-7,2-3.57,1.08-8.1,3-11,2.74-4.13,9-8,9-8-2.14-.24-6.65-1-11,0a31.94,31.94,0,0,0-12,6c-2,1.57,0,7-1,10a23.09,23.09,0,0,1-6,9c-4-.12-11,1-15,3a12.12,12.12,0,0,0,3,4A23.13,23.13,0,0,0,149,111.49Z" transform="translate(-4.5 -4.5)"/><g id="text"><path class="cls-1" d="M193.69,411.39h-8.84v15.47h8.72c5,0,10.5-2,10.5-7.55C204.07,413.24,198.91,411.39,193.69,411.39Zm41-16.57-9,21.36h17.74l-8.6-21.36Zm-32.84,4.73c0-5.34-4.67-6.57-9.34-6.57h-7.67v13.63H192C196.82,406.61,201.86,405.56,201.86,399.55ZM37.44,352.5A235.59,235.59,0,0,0,460.85,356Zm96.21,79.15H128.5V388.19h5.15Zm40-38.67H159.25v38.67H154.1V393H139.73v-4.79h33.89Zm19,38.67h-13V388.19H193c7.19,0,14.43,2.7,14.43,10.68,0,5-2.95,8.41-7.61,9.82v.13a10.62,10.62,0,0,1,9.82,10.68C209.59,429.07,200.69,431.65,192.65,431.65Zm57.15,0L245.38,421H223.65l-4.48,10.68h-5.83l19.15-43.46h4.85l18.48,43.46Zm22,.26L268,432l-.37-.37c.06-3.54.12-6,.12-10,0-8.11-.12-22.67-.56-33.14l.37-.31,3.84-.13.38.38c0,4.83-.07,9.66-.07,14.49,0,10.66.19,16.85.5,28.62Zm35.93-.19-.25.19H288.63l-5,.24-.44-.43c.07-4,.13-6.32.13-9.6q0-16.83-.56-33.64l.37-.37,4.34.06h11.09l8.73-.13.37.31-.18,3-.5.37-16.29-.19-3.53-.06v16h6.13l13-.12.37.37-.12,2.79-.56.31c-2.48-.06-4.09-.12-6.56-.12-2.11,0-4.22,0-6.32.06H287.2l.31,17.84h5.39l14.87-.25.25.37Zm33.27,0-.25.19h-18.9l-5,.24-.44-.43c.06-4,.13-6.32.13-9.6q0-16.83-.56-33.64l.37-.37,4.34.06H331.8l8.74-.13.37.31-.18,3-.5.37-16.29-.19-3.53-.06v16h6.13l13-.12.37.37-.12,2.79-.56.31c-2.48-.06-4.09-.12-6.57-.12-2.1,0-4.21,0-6.32.06h-5.88l.31,17.84h5.39l14.87-.25.24.37Zm33.26,0-.25.19H355.16l-5,.24-.43-.43c.06-4,.12-6.32.12-9.6q0-16.83-.56-33.64l.38-.37,4.33.06h11.09l8.74-.13.37.31-.19,3-.49.37-16.3-.19-3.53-.06v16h6.14l13-.12.37.37-.13,2.79-.55.31c-2.48-.06-4.09-.12-6.57-.12-2.11,0-4.21,0-6.32.06h-5.89l.31,17.84h5.39l14.87-.25.25.37Z" transform="translate(-4.5 -4.5)"/></g></svg>