<?xml version="1.0" encoding="utf-8"?>
<!-- Generator: Adobe Illustrator 23.1.0, SVG Export Plug-In . SVG Version: 6.00 Build 0)  -->
<svg version="1.1" id="Layer_1" xmlns="http://www.w3.org/2000/svg" xmlns:xlink="http://www.w3.org/1999/xlink" x="0px" y="0px"
	 viewBox="0 0 612 300" style="enable-background:new 0 0 612 300;" xml:space="preserve">
<style type="text/css">
	.st0{fill:#1A73AC;}
	.st1{fill:#E2722C;}
	.st2{font-family:'ArialMT';}
	.st3{font-size:24px;}
</style>
<g>
	<title>Layer 1</title>
	<g id="svg_1">
		<path id="svg_2" class="st0" d="M168.5,239c9,2.2,18.2,2.7,27.5,1.7c10-1.1,19.5-4,28.4-8.6l3.1,5.9c-9.6,5-19.9,8.2-30.7,9.4
			c-10,1.1-20.1,0.5-29.8-1.8L168.5,239L168.5,239z M158.6,235.8l-2.5,6.1l2.2-6.2L158.6,235.8z M156.4,234.9l-2.5,6.1
			c-2.1-0.9-4.2-1.8-6.2-2.9l3-5.9C152.5,233.2,154.4,234.1,156.4,234.9 M146.9,230.2c0.6,0.4,1.2,0.7,1.9,1l-3.2,5.8
			c-0.7-0.4-1.3-0.7-2-1.1L146.9,230.2L146.9,230.2z M141.5,226.8l-3.8,5.4c-0.6-0.4-1.2-0.9-1.9-1.3l3.9-5.4
			C140.3,226,140.9,226.4,141.5,226.8 M138.1,224.3l-4,5.2c-1.8-1.4-3.6-2.9-5.3-4.4l4.4-4.9C134.8,221.6,136.4,223,138.1,224.3
			 M131.7,218.8l-4.6,4.8c-0.6-0.5-1.1-1.1-1.6-1.6l4.7-4.7C130.6,217.8,131.1,218.3,131.7,218.8 M124.5,211
			c0.4,0.6,0.9,1.1,1.4,1.6l-5.1,4.3c-0.5-0.6-1-1.2-1.5-1.8C119.3,215.1,124.5,211,124.5,211z"/>
		<path id="svg_3" class="st0" d="M198,257.6c-9.5,1-18.8,0.7-28-0.9c-2.8-0.5-5.5-1.1-8.2-1.9l-4.3-3.6
			c-35-11.7-60.3-42.9-64.4-79.6c-3.9-35.2,11.8-69,41-88.9l3.7,0.1c12.1-7.8,24.9-12.2,39.4-13.8c16.6-1.8,33.3,0.8,48.4,7.7l3.5-2
			c21,9.6,36.7,25.9,45.7,46.1h4.4c-9.9-22.3-27.7-40.8-50.4-51.1l2.3,1.1l-0.9-4.1c-16.9-7.7-35.7-10.6-54.2-8.6
			c-16.1,1.8-31.1,7.1-44.7,15.8l-0.9,3.3c-31.3,21.2-48,57.4-43.8,95.1c4.3,39.2,31.4,72.7,68.9,85.1l5.9-0.5
			c2.8,0.8,5.7,1.4,8.5,1.9c9.4,1.7,18.9,2,28.5,0.9c27-3,51.3-16.8,67.7-38.2l-0.1-3.5C249.8,240.2,225.4,254.5,198,257.6"/>
		<path id="svg_4" class="st0" d="M87.4,121.1l-12.4-4.7c-0.3,0.7-0.6,1.5-0.8,2.2l12.5,4.5C86.9,122.4,87.2,121.8,87.4,121.1"/>
		<path id="svg_5" class="st0" d="M92.5,109.8l-11.7-6.1c-1.1,2.1-2.1,4.2-3.1,6.3l12.1,5.5C90.7,113.5,91.6,111.6,92.5,109.8"/>
		<path id="svg_6" class="st0" d="M96.7,102.6l-11.2-7c-1.2,2-2.4,4-3.5,6l11.6,6.4C94.5,106.1,95.6,104.3,96.7,102.6"/>
		<path id="svg_7" class="st0" d="M101.4,95.7l-10.6-7.9c-0.5,0.6-0.9,1.2-1.4,1.9l10.8,7.7C100.5,96.8,100.9,96.3,101.4,95.7"/>
		<path id="svg_8" class="st0" d="M109.3,86.2l-9.6-9.1c-1.6,1.7-3.1,3.4-4.6,5.2l10.1,8.5C106.5,89.2,107.9,87.7,109.3,86.2"/>
		<path id="svg_9" class="st0" d="M80.9,149.3l-13.2-1.2c-0.1,0.8-0.1,1.6-0.2,2.3l13.2,0.9C80.8,150.7,80.8,150,80.9,149.3"/>
		<path id="svg_10" class="st0" d="M84.8,129l-12.7-3.7c-0.7,2.2-1.3,4.5-1.8,6.8l12.9,3C83.6,133,84.2,130.9,84.8,129"/>
		<path id="svg_11" class="st0" d="M82.7,137l-12.9-2.7c-0.5,2.3-0.9,4.6-1.2,6.9l13.1,2C81.9,141.1,82.3,139,82.7,137"/>
		<path id="svg_12" class="st0" d="M158.6,56.6l-3.5-12.8c-2.2,0.6-4.5,1.3-6.7,2l4.2,12.5C154.6,57.7,156.6,57.1,158.6,56.6"/>
		<path id="svg_13" class="st0" d="M146.8,60.6l-4.9-12.3c-0.7,0.3-1.4,0.6-2.2,0.9l5.2,12.2C145.5,61.1,146.1,60.8,146.8,60.6"/>
		<path id="svg_14" class="st0" d="M80.5,157.6l-13.2-0.2c0,2.3,0,4.7,0.1,7l13.2-0.6C80.5,161.7,80.4,159.6,80.5,157.6"/>
		<path id="svg_15" class="st0" d="M166.7,54.7l-2.5-13c-2.3,0.4-4.6,0.9-6.8,1.5l3.2,12.8C162.6,55.6,164.6,55.1,166.7,54.7"/>
		<path id="svg_16" class="st0" d="M174.9,53.5l-1.5-13.2c-0.8,0.1-1.5,0.2-2.3,0.3l1.7,13.1C173.5,53.7,174.2,53.6,174.9,53.5"/>
		<path id="svg_17" class="st0" d="M121.6,75l-8.1-10.5c-0.6,0.5-1.2,1-1.8,1.5l8.3,10.3C120.6,75.9,121.1,75.4,121.6,75"/>
		<path id="svg_18" class="st0" d="M139.2,64l-5.9-11.8c-2.1,1-4.2,2.2-6.2,3.3l6.6,11.5C135.5,65.9,137.4,64.9,139.2,64"/>
		<path id="svg_19" class="st0" d="M115.3,80.4l-8.9-9.8c-1.7,1.6-3.4,3.2-5,4.9l9.5,9.3C112.2,83.2,113.7,81.8,115.3,80.4"/>
		<path id="svg_20" class="st0" d="M131.9,68l-6.8-11.3c-2,1.2-4,2.5-5.9,3.8l7.5,10.9C128.4,70.2,130.2,69,131.9,68"/>
		<path id="svg_21" class="st0" d="M84,186.3l-12.8,3.4c0.6,2.3,1.3,4.5,2,6.7l12.6-4.1C85.2,190.4,84.6,188.4,84,186.3"/>
		<path id="svg_22" class="st0" d="M248,72.4l7.7-10.8c-1.9-1.3-3.8-2.6-5.8-3.9l-7,11.2C244.6,70.1,246.3,71.2,248,72.4"/>
		<path id="svg_23" class="st0" d="M254.6,77.5l8.5-10.2c-0.6-0.5-1.2-1-1.8-1.5L253,76.2C253.5,76.6,254,77.1,254.6,77.5"/>
		<path id="svg_24" class="st0" d="M247.9,56.5c-2-1.2-4.1-2.3-6.1-3.4l-6.1,11.7c1.8,1,3.7,2,5.4,3L247.9,56.5L247.9,56.5z"/>
		<path id="svg_25" class="st0" d="M263.7,86l9.6-9.1c-1.6-1.7-3.3-3.3-5-4.9l-9.1,9.6C260.8,83.1,262.2,84.5,263.7,86"/>
		<path id="svg_26" class="st0" d="M235.5,50.1c-0.7-0.3-1.4-0.6-2.1-0.9l-5.2,12.2c0.6,0.3,1.3,0.6,1.9,0.8L235.5,50.1z"/>
		<path id="svg_27" class="st0" d="M81.1,170.7c-0.2-1.6-0.3-3.2-0.4-4.8l-13.2,0.9c0.1,1.8,0.3,3.6,0.5,5.4l0.2,1.6l13.1-1.6
			L81.1,170.7L81.1,170.7z"/>
		<path id="svg_28" class="st0" d="M217.9,43.8c-2.2-0.6-4.5-1.2-6.8-1.6l-2.7,13c2,0.4,4.1,0.9,6.1,1.5L217.9,43.8z"/>
		<path id="svg_29" class="st0" d="M222.3,59l4.5-12.5c-2.2-0.8-4.4-1.5-6.7-2.2l-3.7,12.7C218.4,57.7,220.4,58.3,222.3,59"/>
		<path id="svg_30" class="st0" d="M269.1,92.3l10.3-8.3c-1.5-1.8-3-3.6-4.6-5.3l-9.8,8.9C266.5,89.1,267.8,90.7,269.1,92.3"/>
		<path id="svg_31" class="st0" d="M79.4,211.6c0.3,0.7,0.7,1.4,1.1,2.1l11.8-6.1c-0.3-0.6-0.6-1.2-0.9-1.8L79.4,211.6L79.4,211.6z"
			/>
		<path id="svg_32" class="st0" d="M204.2,40.9c-0.8-0.1-1.5-0.2-2.3-0.3l-1.7,13.1c0.7,0.1,1.4,0.2,2.1,0.3L204.2,40.9L204.2,40.9z
			"/>
		<path id="svg_33" class="st0" d="M86.5,194.3L74,198.7c0.8,2.2,1.6,4.4,2.5,6.5l12.2-5.1C87.9,198.2,87.1,196.2,86.5,194.3"/>
		<path id="svg_34" class="st0" d="M82.2,178.2l-13,2.4c0.1,0.8,0.3,1.5,0.4,2.3l13-2.6C82.5,179.6,82.3,178.9,82.2,178.2"/>
		<path id="svg_35" class="st0" d="M274.1,99l10.9-7.5c-0.4-0.6-0.9-1.3-1.3-1.9l-10.7,7.7C273.3,97.8,273.7,98.4,274.1,99"/>
		<path id="svg_36" class="st0" d="M280.5,109.6l11.7-6.2c-1.1-2-2.2-4.1-3.4-6.1l-11.3,6.8C278.6,106,279.6,107.8,280.5,109.6"/>
		<path id="svg_37" class="st0" d="M194.9,39.9c-2.3-0.2-4.7-0.3-7-0.3l-0.1,13.2c2.1,0,4.2,0.1,6.2,0.2L194.9,39.9L194.9,39.9z"/>
		<path id="svg_38" class="st0" d="M185.7,52.9l-0.1-13.2c-2.3,0-4.7,0.1-7,0.3l0.9,13.2C181.6,53,183.7,52.9,185.7,52.9"/>
		<path id="svg_39" class="st0" d="M196.7,247.3c10.8-1.2,21.2-4.3,30.7-9.4l-3.1-5.9c-8.8,4.6-18.4,7.5-28.4,8.6
			c-9.3,1-18.5,0.5-27.5-1.7l-1.5,6.4C176.7,247.8,186.7,248.4,196.7,247.3"/>
		<polygon id="svg_40" class="st0" points="158.6,235.8 158.3,235.6 156.1,241.9 		"/>
		<path id="svg_41" class="st0" d="M153.8,241l2.5-6.1c-1.9-0.8-3.9-1.7-5.8-2.7l-3,5.9C149.6,239.1,151.7,240.1,153.8,241"/>
		<path id="svg_42" class="st0" d="M127.1,223.6l4.6-4.8c-0.5-0.5-1-1-1.5-1.5l-4.7,4.7C126,222.5,126.5,223,127.1,223.6"/>
		<path id="svg_43" class="st0" d="M134,229.5l4-5.2c-1.7-1.3-3.3-2.7-4.9-4.1l-4.4,4.9C130.5,226.6,132.2,228.1,134,229.5"/>
		<path id="svg_44" class="st0" d="M125.8,212.6c-0.5-0.5-0.9-1.1-1.4-1.6l-5.2,4.1c0.5,0.6,1,1.2,1.5,1.8
			C120.8,216.9,125.8,212.6,125.8,212.6z"/>
		<path id="svg_45" class="st0" d="M148.7,231.2c-0.6-0.3-1.2-0.7-1.9-1l-3.3,5.7c0.7,0.4,1.3,0.8,2,1.1L148.7,231.2L148.7,231.2z"
			/>
		<path id="svg_46" class="st0" d="M137.7,232.2l3.8-5.4c-0.6-0.4-1.2-0.8-1.7-1.2l-3.9,5.4C136.5,231.4,137.1,231.8,137.7,232.2"/>
		<path id="svg_47" class="st0" d="M177.9,77.2c-46.3,5.1-79.8,47-74.7,93.3c0.9,7.8,2.8,15.3,5.7,22.5c0.2-0.1,0.4-0.3,0.6-0.4
			c0.4-0.2,0.9-0.4,1.4-0.5c-2.8-6.9-4.6-14.2-5.5-21.8c-5-45.1,27.6-85.8,72.7-90.8c33.7-3.7,65,13.6,80.7,41.4h2.5
			C245.4,91.5,212.9,73.3,177.9,77.2"/>
		<path id="svg_48" class="st0" d="M244.7,220c0.4,0.3,0.8,0.7,1.1,1.1c0.1,0.2,0.2,0.3,0.4,0.5c8.2-8,14.6-17.4,18.9-27.7l-0.1-2.4
			h-1.3C259.4,202.1,253,211.8,244.7,220"/>
		<path id="svg_49" class="st0" d="M244.7,220c-2.4-1.9-5.8-2-8.3-0.1c-2.9,2.3-3.5,6.5-1.2,9.4c2.3,2.9,6.5,3.5,9.4,1.2
			c2.8-2.1,3.4-6,1.6-8.9c-0.1-0.2-0.2-0.3-0.4-0.5C245.4,220.7,245.1,220.3,244.7,220"/>
		<path id="svg_50" class="st0" d="M108.9,192.9c-2.8,1.9-3.8,5.7-2.1,8.7c1.8,3.3,5.8,4.5,9.1,2.7c3.3-1.8,4.5-5.8,2.7-9.1
			c-1.5-2.8-4.8-4.1-7.7-3.3c-0.5,0.1-0.9,0.3-1.4,0.5C109.3,192.6,109.1,192.8,108.9,192.9"/>
		<path id="svg_51" class="st0" d="M292.1,214.8c2.4-2.1,2.7-5,2.7-6.7c0-2-0.5-4.1-1.9-5.6c-2.2-2.3-5.2-2.4-9-2.4l-1.7,0l-7.2,0.1
			l-0.2,0.2c0.1,2.8,0.1,4.9,0.1,8.4c0,5-0.1,10.5-0.2,16.1l0.2,0.2c3-0.1,3.9-0.1,7.1-0.1l0.2-0.2c-0.1-1.9-0.1-3.1-0.1-4.6
			c0-1.1,0-2.1,0-3.2C285.5,217.1,289.5,217.1,292.1,214.8 M282.1,205.2c1.9,0,2.6,0,3.4,0.3c1.7,0.6,1.7,2.4,1.7,2.8
			c0,1.3-0.6,2.5-1.6,3.1c-0.9,0.5-2.1,0.5-3.4,0.5V205.2z"/>
		<path id="svg_52" class="st0" d="M312.2,214.2c1.2-0.5,2.5-1.2,3.5-3.1c0.4-0.8,0.8-2,0.8-3.7c0-3.1-1.5-4.9-2.5-5.6
			c-2-1.6-5.2-1.5-8.7-1.5l-1.8,0h-6.3l-0.2,0.2c0.2,3.3,0.4,5.3,0.4,10.9c0,4.5-0.1,9-0.2,13.6l0.2,0.2l7.2-0.1l0.2-0.2
			c-0.2-3.8-0.2-4.7-0.2-8.9l1.2,0l2.2,4.6l1.9,4.4l0.4,0.3l7.4-0.3l0.1-0.3l-2.4-4.1L312.2,214.2L312.2,214.2z M304.6,211l0.1-5.8
			c0.4,0,1.3,0,1.7,0c2.1,0,2.8,1.2,2.8,2.7C309.3,211.1,305.9,211.1,304.6,211"/>
		<path id="svg_53" class="st0" d="M329.9,225.5c3,0,7.6-0.7,10.1-5c1.5-2.6,1.7-6.3,1.7-8.2c-0.1-5.3-1.7-8.1-3.6-9.9
			c-2.4-2.2-5.8-2.7-8.1-2.7c-5.5,0-8.3,2.5-9.8,5c-1.5,2.4-1.8,5.4-1.8,8.3C318.4,221,322.5,225.5,329.9,225.5 M330.2,205
			c3,0,3.8,3.5,3.8,7.5c0,2.8-0.3,7.6-4,7.6c-3.7,0-3.9-5.1-3.9-7.3C326.1,208.4,326.9,205,330.2,205"/>
		<path id="svg_54" class="st0" d="M365.8,212.4c-3.1,0.1-3.9,0.1-7.1,0.1l-0.2,0.2c0.2,2.8,0.3,3.5,0.2,6.8
			c-0.6,0.1-1.1,0.2-1.7,0.2c-2.4,0-3.4-1.2-3.7-1.6c-1.4-1.6-1.5-3.9-1.5-5.2c0-2.3,0.5-4.7,2.3-6.2c0.9-0.8,2.5-1.3,4.2-1.3
			c2.7,0,4.2,1.1,5.7,2.1l0.3-0.1l0.4-5.8l-0.1-0.2c-1.6-0.7-3.8-1.5-7.4-1.5c-10.4,0-13.3,7.2-13.3,13.2c0,5.5,2.4,8.6,4.3,10.1
			c2,1.6,4.9,2.5,9,2.5c3.7,0,6-0.7,8.5-1.4l0.1-0.3c0-1.9-0.1-3.7-0.1-5.5c0-2,0-3.3,0.1-5.7L365.8,212.4z"/>
		<path id="svg_55" class="st0" d="M390.6,224.8l0.1-0.3l-2.4-4.1l-3.2-6.2c1.2-0.5,2.5-1.2,3.5-3.1c0.4-0.8,0.8-2,0.8-3.7
			c0-3.1-1.5-4.9-2.4-5.6c-2-1.6-5.2-1.5-8.7-1.5l-1.8,0h-6.3l-0.2,0.2c0.2,3.3,0.4,5.3,0.4,10.9c0,4.5-0.1,9-0.2,13.6l0.2,0.2
			l7.2-0.1l0.2-0.2c-0.2-3.8-0.2-4.7-0.2-8.9l1.2,0l2.2,4.6l1.9,4.4l0.4,0.3L390.6,224.8L390.6,224.8z M377.6,211l0.1-5.8
			c0.4,0,1.3,0,1.8,0c2.1,0,2.8,1.2,2.8,2.7C382.2,211.1,378.9,211.1,377.6,211"/>
		<path id="svg_56" class="st0" d="M415.6,225l0.2-0.3l-7.1-24.4l-0.2-0.2l-8.9,0.1l-0.2,0.2l-7.6,24.3l0.2,0.2h6.4l0.2-0.1l1.4-5.9
			h6.8l1.3,6l0.2,0.2c1.2,0,2.4-0.1,3.6-0.1L415.6,225L415.6,225z M401.3,213.9l0.9-3.5c0.8-2.8,1-3.6,1.4-5.5l1.2,5.3l0.9,3.7
			L401.3,213.9L401.3,213.9z"/>
		<path id="svg_57" class="st0" d="M438.4,210.7l1.3-4.8v5.3l0.3,13.7l0.2,0.2c3-0.1,4-0.1,6.9-0.1l0.2-0.2
			c-0.2-4.2-0.5-8.3-0.7-12.5c-0.3-5.8-0.4-7.7-0.5-11.9l-0.2-0.2l-9.5,0.1l-0.2,0.1c-0.4,1.5-0.7,3-1.1,4.5c-0.7,2.5-1.4,5-2,7.5
			c-0.2,1-0.5,1.9-0.7,2.9l-3.9-15l-0.2-0.1c-1.6,0-3.3,0.1-5,0.1h-4.7l-0.2,0.2c-0.3,11.7-0.5,14.6-1.2,24.4l0.2,0.2l5.8-0.1
			l0.2-0.2c0-1.9-0.1-3.3-0.1-5.1c0-3,0.1-6,0.1-8.9l0.1-5l1.6,6.1l0.6,2.1c1.1,4.2,1.5,5.6,2.9,11l0.2,0.2c2.5-0.1,3.1-0.1,5.5-0.1
			l0.3-0.2l3.2-11.9L438.4,210.7z"/>
		<path id="svg_58" class="st0" d="M479,200.4l-0.2-0.2l-9.5,0.1l-0.2,0.1c-0.4,1.5-0.7,3-1.1,4.5c-0.7,2.5-1.4,5-2,7.5
			c-0.2,1-0.5,1.9-0.7,2.9l-3.9-15l-0.2-0.1c-1.6,0-3.3,0.1-5,0.1h-4.7l-0.2,0.2c-0.3,11.7-0.5,14.6-1.2,24.4l0.2,0.2l5.8-0.1
			l0.2-0.2c0-1.9-0.1-3.3-0.1-5.1c0-3,0.1-6,0.1-8.9l0.1-5l1.6,6.1l0.6,2.1c1.1,4.2,1.5,5.6,2.9,11l0.2,0.2c2.5-0.1,3.1-0.1,5.5-0.1
			l0.3-0.2l3.2-11.9l0.6-2.1l1.3-4.8v5.3l0.3,13.7l0.2,0.2c3-0.1,4-0.1,6.9-0.1l0.2-0.2c-0.2-4.2-0.5-8.3-0.7-12.5
			C479.2,206.4,479.1,204.6,479,200.4"/>
		<path id="svg_59" class="st0" d="M492.8,200.3l-0.1-0.2c-3.4,0.1-4.2,0.1-7.6,0.1l-0.2,0.2c0.1,3.7,0.2,6,0.2,9.1c0,2,0,4-0.1,6
			c0,3.1-0.1,6.2-0.1,9.4l0.1,0.2c3.5-0.1,4.3-0.1,7.6-0.1l0.1-0.2c-0.1-4.9-0.2-9.9-0.2-14.8C492.6,205.9,492.7,203.8,492.8,200.3"
			/>
		<path id="svg_60" class="st0" d="M519.7,200.3l-0.2-0.1l-5.7,0.1l-0.1,0.2c0.2,5.1,0.2,6.4,0.2,12.9c-2.7-3.9-3.5-4.9-5.4-7.6
			c-1.9-2.6-2.3-3.1-3.9-5.5l-0.2-0.1c-1,0-2,0.1-3,0.1h-3.1l-0.2,0.2c0.3,6.2,0.4,12.3,0.4,18.5c0,2.2,0,3.5-0.1,6l0.2,0.2
			c2.6-0.1,3.3-0.1,5.9-0.1l0.2-0.2l-0.5-14.1c0,0,5,6.7,6.5,8.8c1.9,2.6,2.1,2.8,4,5.5l0.3,0.1l4.9-0.1l0.2-0.2
			c-0.1-3.8-0.1-5.6-0.1-8.9C519.7,213.4,519.7,202.5,519.7,200.3"/>
		<path id="svg_61" class="st0" d="M544.8,212.6l-0.2-0.2c-3.1,0.1-3.9,0.1-7.1,0.1l-0.2,0.2c0.2,2.8,0.3,3.5,0.2,6.8
			c-0.6,0.1-1.1,0.2-1.7,0.2c-2.4,0-3.4-1.2-3.7-1.6c-1.4-1.6-1.5-3.9-1.5-5.2c0-2.3,0.5-4.7,2.3-6.2c0.9-0.8,2.4-1.3,4.2-1.3
			c2.7,0,4.2,1.1,5.7,2.1l0.3-0.1l0.4-5.8l-0.1-0.2c-1.6-0.7-3.8-1.5-7.4-1.5c-10.4,0-13.3,7.2-13.3,13.2c0,5.5,2.4,8.6,4.3,10.1
			c2,1.6,4.9,2.5,9,2.5c3.7,0,6-0.7,8.5-1.4l0.1-0.3c0-1.9-0.1-3.7-0.1-5.5C544.7,216.2,544.7,214.9,544.8,212.6"/>
		<path id="svg_62" class="st0" d="M290.4,256c-1.3,0.5-2.6,0.8-3.9,0.8c-5.9,0-9.8-4.7-9.8-10.8c0-5.1,2.7-11.1,9.7-11.1
			c3.4,0,5.2,1.2,6.2,1.9l0.2-0.2c0.1-0.9,0.1-1.1,0.3-1.9l-0.2-0.3c-1.4-0.7-3-1.5-6.6-1.5c-8.1,0-12.1,6.5-12.1,13
			c0,6.9,4,12.8,11.9,12.8c2.2,0,4.3-0.5,5.7-1.2c0.4-0.2,0.8-0.5,1.3-0.7l0.2-0.4c0-1,0-1.2,0.2-2.1l-0.3-0.2
			C292.3,255,291.7,255.5,290.4,256"/>
		<path id="svg_63" class="st0" d="M305.4,233c-8.3,0-11.4,6.4-11.4,12.8c0,4,1,7.8,3.7,10.3c1.7,1.7,4.3,2.6,7.6,2.6
			c7,0,11.1-5,11.1-12.9C316.5,238.5,313.1,233,305.4,233 M309.5,255.9c-1,0.6-2.5,0.9-4.3,0.9c-7.3,0-8.9-6.9-8.9-11.1
			c0-4.5,1.8-7.7,3.4-9.1c1.3-1.1,3.2-1.9,5.8-1.9c0.9,0,4.2,0,6.6,3.2c1.8,2.5,2,6.5,2,7.8C314.2,250.5,312.6,254.3,309.5,255.9"/>
		<path id="svg_64" class="st0" d="M342.6,233.7l-0.2-0.3c-1.3,0.1-1.7,0.1-3.1,0.1l-0.2,0.2c-0.2,0.8-0.6,1.7-0.8,2.3
			c-0.2,0.7-1.3,3.6-1.5,4.3l-5.4,16.2l-5.4-17.6c-0.7-2.5-1.6-5.1-1.6-5.3l-0.2-0.2c-1.5,0.1-1.7,0.1-3.2,0.1l-0.2,0.2
			c-0.1,3.3-0.1,3.7-0.3,8.1l-0.4,7.7c-0.1,1.4-0.2,2.8-0.3,4.2c-0.1,2-0.2,3-0.3,4.3l0.2,0.3c0.9,0,1.3,0,1.9,0l0.2-0.2
			c0-3,0.1-3.7,0.3-10l0.6-12.9l4.7,15.4c0.7,2.2,0.8,2.7,2.1,7l0.1,0.5l0.2,0.2c1.4,0,1.6,0,2.8,0l0.3-0.2c0.7-2.1,1.8-5.6,2.5-7.7
			l5.1-15.6l0.3,15.1c0,1.5,0.1,2.8,0.1,4.2v4.1l0.2,0.2c0.9-0.1,1.2-0.1,2.1-0.1l0.2-0.2c-0.3-5.1-0.5-10.2-0.6-13.1L342.6,233.7
			L342.6,233.7z"/>
		<path id="svg_65" class="st0" d="M355.2,233.4l-1.2,0l-4.6,0.1l-0.2,0.2c0.2,3.5,0.2,3.7,0.2,8.3c0,1.6,0.1,9,0.1,10.5
			c0,2,0,3.3-0.1,5.5l0.2,0.2l2.2-0.1l0.2-0.2c-0.1-3.7-0.2-4.9-0.2-9.8h0.8c3.5,0,7-0.1,9.4-2c1.3-1,2.7-2.9,2.7-5.7
			c0-2.5-1.1-4.1-2.1-5.1C360.4,233.5,358,233.4,355.2,233.4 M361.1,243.9c-1.9,2.4-4.4,2.4-9.4,2.4v-11l1.3,0c0.7,0,1.4,0,2,0
			c1.9,0,4.3,0.1,5.8,1.5c0.6,0.5,1.5,1.6,1.5,3.6C362.3,241.7,361.9,242.9,361.1,243.9"/>
		<path id="svg_66" class="st0" d="M373.9,256.3h-3l-0.2-10.1h3.3c1.2,0,2.4,0,3.6,0c1.4,0,2.3,0,3.7,0.1l0.3-0.2l0.1-1.6l-0.2-0.2
			l-7.4,0.1h-3.5v-9l2,0l9.2,0.1l0.3-0.2l0.1-1.7l-0.2-0.2l-4.9,0.1h-6.3l-2.4,0l-0.2,0.2c0.2,6.3,0.3,12.7,0.3,19
			c0,1.9,0,3.2-0.1,5.4l0.2,0.2l2.8-0.1h10.7l0.1-0.1l0.1-1.7l-0.1-0.2L373.9,256.3L373.9,256.3z"/>
		<path id="svg_67" class="st0" d="M395.4,233.5h-8.3l-3.6-0.1l-0.2,0.2l-0.1,1.7l0.2,0.2l7.4-0.1c0,3.9,0.1,7.8,0.1,11.7
			c0,3.6,0,7.3-0.1,11l0.2,0.2l2.1,0l0.2-0.2c-0.2-9.8-0.3-12.4-0.3-22.7c3.8,0,4.6,0.1,7.2,0.2l0.2-0.2l0.1-1.8l-0.2-0.2
			L395.4,233.5L395.4,233.5z"/>
		<path id="svg_68" class="st0" d="M405.7,233.6l-0.2-0.2l-2.2,0.1l-0.2,0.2c0.2,5.9,0.3,14.1,0.3,18.7c0,2.2,0,3.6-0.1,5.6l0.2,0.2
			l2.2,0l0.2-0.2c-0.2-6.7-0.3-10.2-0.3-16.2C405.7,239.1,405.7,236.4,405.7,233.6"/>
		<path id="svg_69" class="st0" d="M420.9,233.5h-8.3l-3.6-0.1l-0.2,0.2l-0.1,1.7l0.2,0.2l7.4-0.1c0,3.9,0.1,7.8,0.1,11.7
			c0,3.6,0,7.3-0.1,11l0.2,0.2l2.1,0l0.2-0.2c-0.2-9.8-0.3-12.4-0.3-22.7c3.8,0,4.6,0.1,7.2,0.2l0.2-0.2l0.1-1.8l-0.2-0.2
			L420.9,233.5L420.9,233.5z"/>
		<path id="svg_70" class="st0" d="M430.6,233.6l-0.2-0.2l-2.2,0.1l-0.2,0.2c0.2,5.9,0.3,14.1,0.3,18.7c0,2.2,0,3.6-0.1,5.6l0.2,0.2
			l2.2,0l0.2-0.2c-0.2-6.7-0.3-10.2-0.3-16.2C430.5,239.1,430.6,236.4,430.6,233.6"/>
		<path id="svg_71" class="st0" d="M446.3,233c-8.3,0-11.4,6.4-11.4,12.8c0,4,1.1,7.8,3.7,10.3c1.8,1.7,4.3,2.6,7.6,2.6
			c7,0,11.1-5,11.1-12.9C457.4,238.5,454,233,446.3,233 M450.4,255.9c-1,0.6-2.5,0.9-4.3,0.9c-7.3,0-8.9-6.9-8.9-11.1
			c0-4.5,1.8-7.7,3.4-9.1c1.3-1.1,3.2-1.9,5.8-1.9c0.9,0,4.2,0,6.6,3.2c1.8,2.5,2,6.5,2,7.8C455.1,250.5,453.5,254.3,450.4,255.9"/>
		<path id="svg_72" class="st0" d="M479.4,233.6l-0.2-0.2l-1.9,0.1l-0.2,0.2c0.3,9,0.3,11.8,0.4,22.8l-7.3-13
			c-1.7-2.9-3.1-5.2-4.2-7.1c-0.9-1.5-0.9-1.6-1.6-2.7l-0.3-0.2l-3.1,0.1l-0.2,0.2c0.2,6.8,0.3,10.8,0.3,16.5c0,2.6,0,5.2,0,7.8
			l0.2,0.2l1.9,0l0.2-0.2c-0.2-5.5-0.2-6.2-0.2-12.3c0-3.5-0.1-6.9-0.1-10.4l9.7,17.2c1.9,3.3,2.8,4.8,3.3,5.6l0.3,0.2l3.1-0.1
			l0.2-0.2c-0.2-5.8-0.3-13-0.3-18.9C479.3,236.9,479.4,235.4,479.4,233.6"/>
		<path id="svg_73" class="st1" d="M136.3,141.8l-0.2-0.3c-6.1,0.2-7.4,0.2-13.5,0.2l-0.3,0.3c0.2,6.6,0.4,10.7,0.4,16.2
			c0,3.5-0.1,7.1-0.1,10.6c-0.1,5.5-0.1,11.1-0.1,16.6l0.2,0.3c6.2-0.3,7.6-0.3,13.5-0.2l0.3-0.3c-0.3-8.7-0.4-17.6-0.4-26.3
			C136,151.7,136.1,148,136.3,141.8"/>
		<path id="svg_74" class="st1" d="M159,175.9v-8.6h12.9l0.4-0.4l0.5-8.1l-0.4-0.4l-13.6,0.2v-7.9h14.4l0.4-0.3l0.4-8.6l-0.3-0.2
			h-28l-0.4,0.4c0.3,6.3,0.4,8.9,0.4,23.8c0,8.4-0.1,12.3-0.3,19.4l0.3,0.4c5.9-0.1,9.4-0.2,16.3-0.2c1.9,0,3.3,0.1,11.8,0.1
			l0.6-0.4l0.6-9.2l-0.4-0.4C168.4,175.8,163.9,175.9,159,175.9"/>
		<path id="svg_75" class="st1" d="M195.2,175.9v-8.6h12.9l0.4-0.4l0.5-8.1l-0.4-0.4l-13.6,0.2v-7.9h14.4l0.4-0.3l0.4-8.6l-0.3-0.2
			h-28l-0.4,0.4c0.3,6.3,0.4,8.9,0.4,23.8c0,8.4-0.1,12.3-0.2,19.4l0.3,0.4c5.9-0.1,9.4-0.2,16.3-0.2c1.9,0,3.3,0.1,11.8,0.1
			l0.6-0.4l0.6-9.2l-0.4-0.4C204.6,175.8,200.1,175.9,195.2,175.9"/>
		<path id="svg_76" class="st1" d="M320.4,140l-9.2,0.2H296l-6.6-0.2l-0.1,0.1l2.4-3c2.2-2.7,5.5-7.1,7.7-9.6l-0.3-0.8
			c-6.2,0.3-7.8,0.3-13.1,0.2l-0.7,0.6c-0.9,1.3-1.8,2.7-2.7,4.1c-1.4,2.1-7.9,11-9.1,12.8l-4.8-17.2l-0.5-0.6l-14.9,0.6l-0.5,0.7
			l5,13.5l5.2,14.1l-14.6,18.6l-1.4,1.8c-5.9,0.2-10.3,0.3-14.9,0.3v-8.6h12.9l0.4-0.4l0.5-8.1l-0.4-0.4l-13.6,0.2v-7.9H246l0.4-0.3
			l0.4-8.6l-0.3-0.2h-28l-0.4,0.4c0.3,6.3,0.4,8.9,0.4,23.8c0,8.4-0.1,12.3-0.2,19.4l0.3,0.4c0.3,0,0.6,0,0.9,0l0,0
			c5.1-0.1,8.2-0.2,14.1-0.2c1.6,0,2.9,0.1,10.3,0.1l0,0c0.8,0,1.5,0,2.2,0c0.2,0,0.4,0,0.5,0l0,0c1.8,0,3.7,0,6.7,0l0.7-0.4
			c2.5-3.7,3.4-5.1,6.5-9.3l6.4-8.6l3,9.8l2.5,8.3l0.6,0.5c5.9-0.2,7.7-0.3,14.8-0.2l0.5-0.7c-2.8-7.1-3.2-8.2-5.7-14.7l-5.4-14.6
			l9.1-11.7l16.4-0.2c0.1,7.1,0.1,14.3,0.1,21.5c0,6.7-0.1,13.4-0.1,20.1l0.4,0.4l3.9-0.1l0.4-0.4c-0.4-18-0.5-22.7-0.5-41.5
			c7,0,8.5,0.1,13.2,0.3l0.4-0.3l0.3-3.2L320.4,140L320.4,140z"/>
		<path id="svg_77" class="st1" d="M327.3,185.2l0.4,0.4l3.9-0.1l0.4-0.4c-0.4-8.9-0.4-11.4-0.4-20.3l5.8-0.1c0.8,1,1.2,1.5,5.8,7.6
			c5.8,7.7,6.4,8.5,9.5,12.8l0.6,0.4c0.8-0.1,1.6-0.1,2.4-0.2h2.1l0.3-0.6c-1.1-1.3-5.9-7.5-6.9-8.8c-1.5-1.9-2.9-3.7-4.4-5.6
			l-4.7-6.2c2.8-0.4,6.4-1,9.4-4.1c1.9-1.9,3.4-4.9,3.4-8.3c0-1.1-0.2-8.4-7.4-11c-2.7-0.9-5.7-1-11.1-0.9l-9.2,0.2l-0.4,0.4
			c0.4,11.5,0.6,23,0.6,34.6C327.5,178.8,327.5,180.8,327.3,185.2 M331.5,143.5c2.8-0.1,5.1-0.2,7.6-0.2c3.6,0,11.7,0,11.7,8.5
			c0,5.5-3.5,7.4-5.6,8.3c-2.9,1.2-5.8,1.3-13.7,1.3V143.5z"/>
		<path id="svg_78" class="st1" d="M364.7,185.3l0.4,0.4l5.2-0.3H390l0.3-0.2l0.3-3.1l-0.3-0.4l-15.4,0.3h-5.6l-0.3-18.5h6.1
			c2.2-0.1,4.4-0.1,6.5-0.1c2.6,0,4.2,0.1,6.8,0.1l0.6-0.3l0.1-2.9l-0.4-0.4l-13.5,0.1h-6.4v-16.6l3.7,0.1l16.9,0.2l0.5-0.4l0.2-3.1
			l-0.4-0.3l-9.1,0.1h-11.5l-4.5-0.1l-0.4,0.4c0.4,11.6,0.6,23.2,0.6,34.9C364.9,178.8,364.8,181.2,364.7,185.3"/>
		<path id="svg_79" class="st1" d="M401.8,185.5l0.4-0.4c0.1-5.5,0.1-6.8,0.6-18.3l1-23.6l8.6,28.2c1.2,4,1.5,4.9,3.9,12.8l0.3,0.8
			l0.4,0.4c2.5-0.1,2.9-0.1,5.2,0l0.5-0.4c1.3-3.9,3.3-10.2,4.6-14.1l9.4-28.7l0.5,27.6c0.1,2.8,0.1,5.1,0.1,7.7v7.5l0.4,0.4
			c1.7-0.1,2.1-0.1,3.9-0.1l0.3-0.4c-0.6-9.3-0.8-18.6-1-23.9l-0.5-20.6L440,140c-2.4,0.1-3.1,0.2-5.6,0.2l-0.4,0.3
			c-0.5,1.5-1,3.1-1.5,4.3c-0.4,1.2-2.3,6.7-2.7,7.8l-9.9,29.8l-9.9-32.3c-1.3-4.5-2.9-9.4-3-9.7l-0.5-0.4c-2.7,0.1-3.1,0.1-5.9,0.1
			l-0.3,0.3c-0.1,6-0.2,6.9-0.6,14.8l-0.8,14.1c-0.2,2.6-0.3,5.2-0.5,7.8c-0.2,3.7-0.3,5.5-0.6,8l0.4,0.5
			C400,185.5,400.6,185.5,401.8,185.5"/>
		<path id="svg_80" class="st1" d="M453,185.3l0.4,0.4l5.2-0.3h19.6l0.3-0.2l0.3-3.1l-0.3-0.4l-15.4,0.3h-5.6l-0.3-18.5h6.1
			c2.2-0.1,4.4-0.1,6.5-0.1c2.6,0,4.2,0.1,6.8,0.1l0.6-0.3l0.1-2.9l-0.4-0.4l-13.5,0.1h-6.4v-16.6l3.7,0.1l16.9,0.2l0.5-0.4l0.2-3.1
			l-0.4-0.3l-9.1,0.1h-11.5l-4.5-0.1l-0.4,0.4c0.4,11.6,0.6,23.2,0.6,34.9C453.1,178.8,453.1,181.2,453,185.3"/>
	</g>
	<text id="svg_81" transform="matrix(1 0 0 1 485 250)" class="st0 st2 st3">13.0</text>
</g>
</svg>
