<?xml version="1.0" encoding="utf-8"?>
<!-- Generator: Adobe Illustrator 25.3.1, SVG Export Plug-In . SVG Version: 6.00 Build 0)  -->
<svg version="1.1" id="Layer_1" xmlns="http://www.w3.org/2000/svg" xmlns:xlink="http://www.w3.org/1999/xlink" x="0px" y="0px"
	 viewBox="0 0 200 100.2" style="enable-background:new 0 0 200 100.2;" xml:space="preserve">
<style type="text/css">
	.st0{fill:#FFFFFF;}
	.st1{fill:none;stroke:#752F8B;stroke-width:3;stroke-miterlimit:10;}
</style>
<path class="st0" d="M177.3,100.2v-7.7H200v7.7H177.3z"/>
<path class="st0" d="M177.3,68.6V55.5c0-2.3,0.6-4.1,1.7-5.4c1.1-1.3,2.7-1.9,4.7-1.9c1.1,0,2.1,0.2,2.9,0.6c0.8,0.4,1.5,1,1.9,1.7
	c0.4-1,1-1.8,1.7-2.3c0.7-0.5,1.7-0.8,3-0.8c2.1,0,3.8,0.7,5,2.1c1.2,1.4,1.8,3.3,1.8,5.8v13.3H177.3z M186.2,58.1
	c0-1.4-0.6-2.1-1.8-2.1c-1.2,0-1.8,0.7-1.8,2.2v3.7h3.7V58.1z M194.8,57.9c0-0.7-0.2-1.3-0.5-1.6c-0.3-0.4-0.8-0.5-1.5-0.5
	c-1.2,0-1.8,0.7-1.8,2.2v3.9h3.8V57.9z"/>
<path class="st0" d="M177.3,39v-8l22.7-8.8v8l-4.5,1.8v6.2l4.5,1.7v8L177.3,39z M190.2,32.8l-5.5,2.2l5.5,2.1V32.8z"/>
<polygon class="st0" points="200,76.7 183.9,76.7 183.9,70.6 177.1,70.6 177.1,90.7 183.9,90.7 183.9,84.4 200,84.4 "/>
<path class="st0" d="M91.9,63.3"/>
<path class="st1" d="M45.3,89.9"/>
<path class="st1" d="M79.8,75.4"/>
<g>
	<path class="st0" d="M123.1,42.5v47.3c17.2,0.1,34.1,0.2,48.4,0.5V75.7h-28.1V64.5h28.1V48.8h-28.1V37.6h28.1V22.1h-34.9
		C132.4,28.5,127.7,35.5,123.1,42.5z"/>
	<path class="st0" d="M132.6,22.1h-9.5v12.3C126.4,30.3,129.6,26.1,132.6,22.1z"/>
</g>
<g>
	<path class="st0" d="M97,87.1c1.7,3,5,2.6,6.5,2.6c4,0,8.1,0,12.1,0v-36c-9.5,14.3-17.2,26-17.6,26.5C97.3,81.3,96,85.4,97,87.1z"
		/>
	<path class="st0" d="M115.7,44.2V22.1H94v50.4C97.2,68.4,105.9,56.9,115.7,44.2z"/>
</g>
<path class="st0" d="M94.1,92.5c-7.8-0.1-10.8-4.3-7-10c1.7-2.3,4-5.9,5.8-7.9c0,0,54.8-72,57.5-74.4c0,0,0,0-0.1,0
	c-0.6-0.3-4.3,3.8-4.3,3.8L86.8,72.9c0,0-2.4,2.7-6.1,6c-1.1,1.2-2.3,2.6-3.7,4c-2.6,2.6-5.8,5.2-10.1,7c-2.9,1.2-6.2,2.1-10.2,2.3
	c-6.1,0.4-11.6,0.6-16.7,0.6c-9.5,0-17.4-0.5-23.7-0.6l0.8,3.2l1,4c26.7-2.4,140.6-0.3,153.4,0.7v-7.9
	C141.6,91.9,105.2,92.2,94.1,92.5z"/>
<g>
	<path class="st0" d="M34.5,90.6l11-35l10,34.5c4.7-0.6,9-2.2,12.6-4.4c3.8-2.3,6.9-5.2,9.2-8.4l12.7-55.1H70.4L62.1,59L51.6,22.1
		H38.2L34,36.9l0-0.2l-6.4,22.1l-7.8-36.7H0l15.7,67.9C21,90.2,27.2,90.5,34.5,90.6z"/>
	<path class="st0" d="M66.9,89.9c-1.5,0.6-3.1,1.2-4.9,1.6h12.1l1.7-7.4C73.4,86.2,70.5,88.4,66.9,89.9z"/>
</g>
</svg>
