<?xml version="1.0" encoding="UTF-8" standalone="no" ?>
<!DOCTYPE svg PUBLIC "-//W3C//DTD SVG 1.1//EN" "http://www.w3.org/Graphics/SVG/1.1/DTD/svg11.dtd">
<svg xmlns="http://www.w3.org/2000/svg" xmlns:xlink="http://www.w3.org/1999/xlink" version="1.1" width="1080" height="1080" viewBox="0 0 1080 1080" xml:space="preserve">
<desc>Created with Fabric.js 5.2.4</desc>
<defs>
</defs>
<g transform="matrix(1 0 0 1 540 540)" id="747b72b8-2e82-43f8-b955-dc98cf8634c8"  >
</g>
<g transform="matrix(1 0 0 1 540 540)" id="6531dd21-26d6-4f5c-96bc-a3d68a037189"  >
<rect style="stroke: none; stroke-width: 1; stroke-dasharray: none; stroke-linecap: butt; stroke-dashoffset: 0; stroke-linejoin: miter; stroke-miterlimit: 4; fill: rgb(255,255,255); fill-rule: nonzero; opacity: 1; visibility: hidden;" vector-effect="non-scaling-stroke"  x="-540" y="-540" rx="0" ry="0" width="1080" height="1080" />
</g>
<g transform="matrix(4.21 0 0 4.21 540 513.16)"  >
<g style="" vector-effect="non-scaling-stroke"   >
		<g transform="matrix(1 0 0 1 88.65 46.16)"  >
<path style="stroke: none; stroke-width: 1; stroke-dasharray: none; stroke-linecap: butt; stroke-dashoffset: 0; stroke-linejoin: miter; stroke-miterlimit: 4; fill: rgb(110,45,147); fill-rule: nonzero; opacity: 1;" vector-effect="non-scaling-stroke"  transform=" translate(-188.65, -96.35)" d="M 177.3 100.2 L 177.3 92.5 L 200 92.5 L 200 100.2 L 177.3 100.2 z" stroke-linecap="round" />
</g>
		<g transform="matrix(1 0 0 1 88.65 7.81)"  >
<path style="stroke: none; stroke-width: 1; stroke-dasharray: none; stroke-linecap: butt; stroke-dashoffset: 0; stroke-linejoin: miter; stroke-miterlimit: 4; fill: rgb(110,45,147); fill-rule: nonzero; opacity: 1;" vector-effect="non-scaling-stroke"  transform=" translate(-188.65, -58)" d="M 177.3 68.6 L 177.3 55.5 C 177.3 53.2 177.9 51.4 179 50.1 C 180.1 48.800000000000004 181.7 48.2 183.7 48.2 C 184.79999999999998 48.2 185.79999999999998 48.400000000000006 186.6 48.800000000000004 C 187.4 49.2 188.1 49.800000000000004 188.5 50.50000000000001 C 188.9 49.50000000000001 189.5 48.70000000000001 190.2 48.20000000000001 C 190.89999999999998 47.70000000000001 191.89999999999998 47.40000000000001 193.2 47.40000000000001 C 195.29999999999998 47.40000000000001 197 48.100000000000016 198.2 49.500000000000014 C 199.39999999999998 50.90000000000001 200 52.80000000000001 200 55.30000000000001 L 200 68.60000000000001 L 177.3 68.60000000000001 z M 186.2 58.1 C 186.2 56.7 185.6 56 184.39999999999998 56 C 183.2 56 182.59999999999997 56.7 182.59999999999997 58.2 L 182.59999999999997 61.900000000000006 L 186.29999999999995 61.900000000000006 L 186.29999999999995 58.1 z M 194.8 57.9 C 194.8 57.199999999999996 194.60000000000002 56.6 194.3 56.3 C 194 55.9 193.5 55.8 192.8 55.8 C 191.60000000000002 55.8 191 56.5 191 58 L 191 61.9 L 194.8 61.9 L 194.8 57.9 z" stroke-linecap="round" />
</g>
		<g transform="matrix(1 0 0 1 88.65 -15.14)"  >
<path style="stroke: none; stroke-width: 1; stroke-dasharray: none; stroke-linecap: butt; stroke-dashoffset: 0; stroke-linejoin: miter; stroke-miterlimit: 4; fill: rgb(110,45,147); fill-rule: nonzero; opacity: 1;" vector-effect="non-scaling-stroke"  transform=" translate(-188.65, -35.05)" d="M 177.3 39 L 177.3 31 L 200 22.2 L 200 30.2 L 195.5 32 L 195.5 38.2 L 200 39.900000000000006 L 200 47.900000000000006 L 177.3 39 z M 190.2 32.8 L 184.7 35 L 190.2 37.1 L 190.2 32.8 z" stroke-linecap="round" />
</g>
		<g transform="matrix(1 0 0 1 88.55 30.46)"  >
<polygon style="stroke: none; stroke-width: 1; stroke-dasharray: none; stroke-linecap: butt; stroke-dashoffset: 0; stroke-linejoin: miter; stroke-miterlimit: 4; fill: rgb(110,45,147); fill-rule: nonzero; opacity: 1;" vector-effect="non-scaling-stroke"  points="11.45,-3.95 -4.65,-3.95 -4.65,-10.05 -11.45,-10.05 -11.45,10.05 -4.65,10.05 -4.65,3.75 11.45,3.75 " />
</g>
		<g transform="matrix(1 0 0 1 -8.1 13.11)"  >
<path style="stroke: none; stroke-width: 1; stroke-dasharray: none; stroke-linecap: butt; stroke-dashoffset: 0; stroke-linejoin: miter; stroke-miterlimit: 4; fill: rgb(110,45,147); fill-rule: nonzero; opacity: 1;" vector-effect="non-scaling-stroke"  transform=" translate(-91.9, -63.3)" d="M 91.9 63.3" stroke-linecap="round" />
</g>
		<g transform="matrix(1 0 0 1 -54.7 39.71)"  >
<path style="stroke: rgb(117,47,139); stroke-width: 3; stroke-dasharray: none; stroke-linecap: butt; stroke-dashoffset: 0; stroke-linejoin: miter; stroke-miterlimit: 10; fill: none; fill-rule: nonzero; opacity: 1;" vector-effect="non-scaling-stroke"  transform=" translate(-45.3, -89.9)" d="M 45.3 89.9" stroke-linecap="round" />
</g>
		<g transform="matrix(1 0 0 1 -20.2 25.21)"  >
<path style="stroke: rgb(117,47,139); stroke-width: 3; stroke-dasharray: none; stroke-linecap: butt; stroke-dashoffset: 0; stroke-linejoin: miter; stroke-miterlimit: 10; fill: none; fill-rule: nonzero; opacity: 1;" vector-effect="non-scaling-stroke"  transform=" translate(-79.8, -75.4)" d="M 79.8 75.4" stroke-linecap="round" />
</g>
		<g transform="matrix(1 0 0 1 47.3 6.01)"  >
<path style="stroke: none; stroke-width: 1; stroke-dasharray: none; stroke-linecap: butt; stroke-dashoffset: 0; stroke-linejoin: miter; stroke-miterlimit: 4; fill: rgb(110,45,147); fill-rule: nonzero; opacity: 1;" vector-effect="non-scaling-stroke"  transform=" translate(-147.3, -56.2)" d="M 123.1 42.5 L 123.1 89.8 C 140.29999999999998 89.89999999999999 157.2 90 171.5 90.3 L 171.5 75.7 L 143.4 75.7 L 143.4 64.5 L 171.5 64.5 L 171.5 48.8 L 143.4 48.8 L 143.4 37.6 L 171.5 37.6 L 171.5 22.1 L 136.6 22.1 C 132.4 28.5 127.7 35.5 123.1 42.5 z" stroke-linecap="round" />
</g>
		<g transform="matrix(1 0 0 1 27.85 -21.94)"  >
<path style="stroke: none; stroke-width: 1; stroke-dasharray: none; stroke-linecap: butt; stroke-dashoffset: 0; stroke-linejoin: miter; stroke-miterlimit: 4; fill: rgb(110,45,147); fill-rule: nonzero; opacity: 1;" vector-effect="non-scaling-stroke"  transform=" translate(-127.85, -28.25)" d="M 132.6 22.1 L 123.1 22.1 L 123.1 34.400000000000006 C 126.4 30.3 129.6 26.1 132.6 22.1 z" stroke-linecap="round" />
</g>
		<g transform="matrix(1 0 0 1 6.12 21.52)"  >
<path style="stroke: none; stroke-width: 1; stroke-dasharray: none; stroke-linecap: butt; stroke-dashoffset: 0; stroke-linejoin: miter; stroke-miterlimit: 4; fill: rgb(110,45,147); fill-rule: nonzero; opacity: 1;" vector-effect="non-scaling-stroke"  transform=" translate(-106.12, -71.71)" d="M 97 87.1 C 98.7 90.1 102 89.69999999999999 103.5 89.69999999999999 C 107.5 89.69999999999999 111.6 89.69999999999999 115.6 89.69999999999999 L 115.6 53.69999999999999 C 106.1 67.99999999999999 98.39999999999999 79.69999999999999 98 80.19999999999999 C 97.3 81.3 96 85.4 97 87.1 z" stroke-linecap="round" />
</g>
		<g transform="matrix(1 0 0 1 4.85 -2.89)"  >
<path style="stroke: none; stroke-width: 1; stroke-dasharray: none; stroke-linecap: butt; stroke-dashoffset: 0; stroke-linejoin: miter; stroke-miterlimit: 4; fill: rgb(110,45,147); fill-rule: nonzero; opacity: 1;" vector-effect="non-scaling-stroke"  transform=" translate(-104.85, -47.3)" d="M 115.7 44.2 L 115.7 22.1 L 94 22.1 L 94 72.5 C 97.2 68.4 105.9 56.9 115.7 44.2 z" stroke-linecap="round" />
</g>
		<g transform="matrix(1 0 0 1 -6.1 -0.05)"  >
<path style="stroke: none; stroke-width: 1; stroke-dasharray: none; stroke-linecap: butt; stroke-dashoffset: 0; stroke-linejoin: miter; stroke-miterlimit: 4; fill: rgb(110,45,147); fill-rule: nonzero; opacity: 1;" vector-effect="non-scaling-stroke"  transform=" translate(-93.9, -50.14)" d="M 94.1 92.5 C 86.3 92.4 83.3 88.2 87.1 82.5 C 88.8 80.2 91.1 76.6 92.89999999999999 74.6 C 92.89999999999999 74.6 147.7 2.5999999999999943 150.39999999999998 0.19999999999998863 C 150.39999999999998 0.19999999999998863 150.39999999999998 0.19999999999998863 150.29999999999998 0.19999999999998863 C 149.7 -0.10000000000001136 145.99999999999997 3.9999999999999885 145.99999999999997 3.9999999999999885 L 86.8 72.9 C 86.8 72.9 84.39999999999999 75.60000000000001 80.7 78.9 C 79.60000000000001 80.10000000000001 78.4 81.5 77 82.9 C 74.4 85.5 71.2 88.10000000000001 66.9 89.9 C 64 91.10000000000001 60.7 92 56.7 92.2 C 50.6 92.60000000000001 45.1 92.8 40 92.8 C 30.5 92.8 22.6 92.3 16.3 92.2 L 17.1 95.4 L 18.1 99.4 C 44.8 97 158.7 99.10000000000001 171.5 100.10000000000001 L 171.5 92.2 C 141.6 91.9 105.2 92.2 94.1 92.5 z" stroke-linecap="round" />
</g>
		<g transform="matrix(1 0 0 1 -55 6.16)"  >
<path style="stroke: none; stroke-width: 1; stroke-dasharray: none; stroke-linecap: butt; stroke-dashoffset: 0; stroke-linejoin: miter; stroke-miterlimit: 4; fill: rgb(110,45,147); fill-rule: nonzero; opacity: 1;" vector-effect="non-scaling-stroke"  transform=" translate(-45, -56.35)" d="M 34.5 90.6 L 45.5 55.599999999999994 L 55.5 90.1 C 60.2 89.5 64.5 87.89999999999999 68.1 85.69999999999999 C 71.89999999999999 83.39999999999999 75 80.49999999999999 77.3 77.29999999999998 L 90 22.19999999999998 L 70.4 22.19999999999998 L 62.1 59 L 51.6 22.1 L 38.2 22.1 L 34 36.9 L 34 36.699999999999996 L 27.6 58.8 L 19.8 22.099999999999994 L 0 22.099999999999994 L 15.7 90 C 21 90.2 27.2 90.5 34.5 90.6 z" stroke-linecap="round" />
</g>
		<g transform="matrix(1 0 0 1 -31.1 37.61)"  >
<path style="stroke: none; stroke-width: 1; stroke-dasharray: none; stroke-linecap: butt; stroke-dashoffset: 0; stroke-linejoin: miter; stroke-miterlimit: 4; fill: rgb(110,45,147); fill-rule: nonzero; opacity: 1;" vector-effect="non-scaling-stroke"  transform=" translate(-68.9, -87.8)" d="M 66.9 89.9 C 65.4 90.5 63.800000000000004 91.10000000000001 62.00000000000001 91.5 L 74.10000000000001 91.5 L 75.80000000000001 84.1 C 73.4 86.2 70.5 88.4 66.9 89.9 z" stroke-linecap="round" />
</g>
</g>
</g>
</svg>