<svg xmlns="http://www.w3.org/2000/svg" viewBox="0 0 32 32" fill="#BA0C2F">
  <path d="M30.447,25.105C28.321,24.042,27,21.905,27,19.528V14c0-0.553-0.447-1-1-1s-1,0.447-1,1v1h-4v-3c0-0.553-0.447-1-1-1h-1V8c0-0.266-0.105-0.52-0.293-0.707l-2-2C16.52,5.105,16.266,5,16,5H6C5.447,5,5,5.447,5,6v5H4c-0.553,0-1,0.447-1,1v7.556C1.81,20.25,1,21.526,1,23c0,2.206,1.794,4,4,4h14c2.206,0,4-1.794,4-4c0-1.474-0.81-2.75-2-3.444V17h4v2.528c0,3.14,1.744,5.962,4.553,7.366C29.696,26.966,29.849,27,29.999,27c0.367,0,0.72-0.202,0.896-0.553C31.142,25.953,30.941,25.353,30.447,25.105z M7,7h8.586L17,8.414V11H7V7z M19,25H5c-1.103,0-2-0.897-2-2s0.897-2,2-2h14c1.103,0,2,0.897,2,2S20.103,25,19,25z M19,19H5v-6h14v2h-3c-0.553,0-1,0.447-1,1s0.447,1,1,1h3V19z"></path>
  <path d="M6 22H5c-.553 0-1 .447-1 1s.447 1 1 1h1c.553 0 1-.447 1-1S6.553 22 6 22zM10 22H9c-.553 0-1 .447-1 1s.447 1 1 1h1c.553 0 1-.447 1-1S10.553 22 10 22zM15 22h-1c-.553 0-1 .447-1 1s.447 1 1 1h1c.553 0 1-.447 1-1S15.553 22 15 22zM19 22h-1c-.553 0-1 .447-1 1s.447 1 1 1h1c.553 0 1-.447 1-1S19.553 22 19 22z"></path>
</svg>
